<?xml version="1.0" encoding="UTF-8"?>
<svg width="350px" height="220px" viewBox="0 0 350 220" version="1.1" xmlns="http://www.w3.org/2000/svg" xmlns:xlink="http://www.w3.org/1999/xlink">
    <!-- Generator: Sketch 40.3 (33839) - http://www.bohemiancoding.com/sketch -->
    <title>Artboard</title>
    <desc>Created with Sketch.</desc>
    <defs></defs>
    <g id="Page-1" stroke="none" stroke-width="1" fill="none" fill-rule="evenodd">
        <g id="Artboard">
            <g id="Group-3" transform="translate(-6.000000, 11.000000)">
                <path d="M56,72 L78.2109375,33 C78.2109375,33 95.4082819,44.4177051 132.433594,56.6992188 C159.845215,65.7918148 182.782185,67.2548773 204,69.2246094 C225.74086,71.2428977 264.378906,69.2246094 290.197266,60.0898438 C297.27061,57.5872313 311.361677,48.2147242 320.777344,46.2128906 C345.559711,40.9439938 344.035567,43.0903437 344.035567,43.0903437 C354.509334,43.3165906 354.832894,45.8403914 344.927549,49.3086893 C344.927549,49.3086893 344.974758,47.6370926 320.777344,60.0898438 C313.599419,63.7838299 306.162066,74.0861867 299.417969,78.0234375 C270.205078,95.078125 224.883802,105.449219 204,105.449219 C181.385323,105.449219 142.868485,103.567994 111.128906,95.078125 C80.3581483,86.8474017 56,72 56,72 Z" id="Triangle" fill="#B21205"></path>
                <g id="Group" transform="translate(43.642929, 38.787791) rotate(-61.000000) translate(-43.642929, -38.787791) translate(20.142929, 2.287791)">
                    <path d="M45.745832,62.939992 L0.745831995,62.939992 C0.745831995,50.2374427 13.5100316,28.629116 25.9364385,28.629116 C38.3628454,28.629116 45.745832,50.2374427 45.745832,62.939992 Z" id="Combined-Shape" fill="#244102" transform="translate(23.245832, 45.784554) rotate(1.000000) translate(-23.245832, -45.784554) "></path>
                    <rect id="Rectangle-2" fill="#244102" transform="translate(8.935213, 63.024758) rotate(45.000000) translate(-8.935213, -63.024758) " x="2.9352127" y="57.0247582" width="12" height="12"></rect>
                    <rect id="Rectangle-2" fill="#244102" transform="translate(22.935213, 64.024758) rotate(45.000000) translate(-22.935213, -64.024758) " x="16.9352127" y="58.0247582" width="12" height="12"></rect>
                    <rect id="Rectangle-2" fill="#244102" transform="translate(36.935213, 64.024758) rotate(45.000000) translate(-36.935213, -64.024758) " x="30.9352127" y="58.0247582" width="12" height="12"></rect>
                    <path d="M24.0038686,0.10638967 C24.0038686,0.10638967 31.0401371,4.14879283 31.3980533,13.4458519 C31.7559695,22.7429109 26.9484388,30.7828727 26.9484388,30.7828727" id="Line" stroke="#234102" stroke-width="5" stroke-linecap="square"></path>
                </g>
                <g id="Group-2" transform="translate(55.000000, 33.000000)" stroke="#FFFFFF" stroke-width="3" stroke-linecap="square">
                    <path d="M9.5,26.5 L19.5,23.5" id="Line"></path>
                    <path d="M19.5,23.5 L17.5,14.5" id="Line"></path>
                    <path d="M17.5,14.5 L26.5,11.5" id="Line"></path>
                    <path d="M0.5,38.5 L12.5,35.5" id="Line"></path>
                    <path d="M9.5,26.5 L12.5,35.5" id="Line"></path>
                    <path d="M26.5,11.5 L23.5,0.5" id="Line"></path>
                </g>
            </g>
            <g id="Group-3" transform="translate(178.500000, 128.000000) scale(-1, 1) translate(-178.500000, -128.000000) translate(2.000000, 75.000000)">
                <path d="M56,72 L78.2109375,33 C78.2109375,33 95.4082819,44.4177051 132.433594,56.6992188 C159.845215,65.7918148 182.782185,67.2548773 204,69.2246094 C225.74086,71.2428977 264.378906,69.2246094 290.197266,60.0898438 C297.27061,57.5872313 311.361677,48.2147242 320.777344,46.2128906 C345.559711,40.9439938 344.035567,43.0903437 344.035567,43.0903437 C354.509334,43.3165906 354.832894,45.8403914 344.927549,49.3086893 C344.927549,49.3086893 344.974758,47.6370926 320.777344,60.0898438 C313.599419,63.7838299 306.162066,74.0861867 299.417969,78.0234375 C270.205078,95.078125 224.883802,105.449219 204,105.449219 C181.385323,105.449219 142.868485,103.567994 111.128906,95.078125 C80.3581483,86.8474017 56,72 56,72 Z" id="Triangle" fill="#B21205"></path>
                <g id="Group" transform="translate(43.642929, 38.787791) rotate(-61.000000) translate(-43.642929, -38.787791) translate(20.142929, 2.287791)">
                    <path d="M45.745832,62.939992 L0.745831995,62.939992 C0.745831995,50.2374427 13.5100316,28.629116 25.9364385,28.629116 C38.3628454,28.629116 45.745832,50.2374427 45.745832,62.939992 Z" id="Combined-Shape" fill="#244102" transform="translate(23.245832, 45.784554) rotate(1.000000) translate(-23.245832, -45.784554) "></path>
                    <rect id="Rectangle-2" fill="#244102" transform="translate(8.935213, 63.024758) rotate(45.000000) translate(-8.935213, -63.024758) " x="2.9352127" y="57.0247582" width="12" height="12"></rect>
                    <rect id="Rectangle-2" fill="#244102" transform="translate(22.935213, 64.024758) rotate(45.000000) translate(-22.935213, -64.024758) " x="16.9352127" y="58.0247582" width="12" height="12"></rect>
                    <rect id="Rectangle-2" fill="#244102" transform="translate(36.935213, 64.024758) rotate(45.000000) translate(-36.935213, -64.024758) " x="30.9352127" y="58.0247582" width="12" height="12"></rect>
                    <path d="M24.0038686,0.10638967 C24.0038686,0.10638967 31.0401371,4.14879283 31.3980533,13.4458519 C31.7559695,22.7429109 26.9484388,30.7828727 26.9484388,30.7828727" id="Line" stroke="#234102" stroke-width="5" stroke-linecap="square"></path>
                </g>
                <g id="Group-2" transform="translate(55.000000, 33.000000)" stroke="#FFFFFF" stroke-width="3" stroke-linecap="square">
                    <path d="M9.5,26.5 L19.5,23.5" id="Line"></path>
                    <path d="M19.5,23.5 L17.5,14.5" id="Line"></path>
                    <path d="M17.5,14.5 L26.5,11.5" id="Line"></path>
                    <path d="M0.5,38.5 L12.5,35.5" id="Line"></path>
                    <path d="M9.5,26.5 L12.5,35.5" id="Line"></path>
                    <path d="M26.5,11.5 L23.5,0.5" id="Line"></path>
                </g>
            </g>
        </g>
    </g>
</svg>